<?xml version="1.0" standalone="no"?>
<!DOCTYPE svg PUBLIC "-//W3C//DTD SVG 20010904//EN"
 "http://www.w3.org/TR/2001/REC-SVG-20010904/DTD/svg10.dtd">
<svg version="1.0" xmlns="http://www.w3.org/2000/svg"
 width="200.000000pt" height="200.000000pt" viewBox="0 0 200.000000 200.000000"
 preserveAspectRatio="xMidYMid meet">
<metadata>
Created by potrace 1.14, written by Peter Selinger 2001-2017
</metadata>
<g transform="translate(0.000000,200.000000) scale(0.100000,-0.100000)"
fill="#000000" stroke="none">
<path d="M589 1706 c-62 -20 -67 -43 -65 -324 l1 -247 95 -2 c52 -1 97 2 100
7 4 6 5 452 1 506 -2 19 -50 61 -75 66 -13 3 -39 0 -57 -6z"/>
<path d="M1313 1593 c-56 -27 -57 -32 -58 -355 -1 -283 -2 -299 -21 -325 -37
-49 -72 -68 -124 -68 -36 1 -58 7 -81 24 -21 16 -36 21 -44 15 -49 -37 -67
-44 -105 -46 l-43 -1 25 -22 c36 -31 81 -102 73 -114 -7 -13 -35 -15 -35 -3 0
25 -77 94 -135 121 -101 48 -88 63 50 62 86 -1 96 1 123 24 45 38 55 75 31
123 -11 21 -30 44 -43 50 -15 6 -100 11 -214 11 l-190 0 3 -187 c3 -205 11
-259 56 -342 82 -154 240 -251 406 -251 89 1 113 6 191 43 118 55 218 174 260
312 21 71 25 844 4 885 -24 46 -83 67 -129 44z"/>
<path d="M844 1312 c-36 -5 -67 -48 -74 -100 -10 -79 -9 -80 76 -81 42 -1 84
-6 94 -11 27 -15 27 -15 29 50 1 58 -15 110 -39 125 -19 12 -65 21 -86 17z"/>
<path d="M1067 1301 c-59 -30 -62 -52 -44 -329 4 -67 63 -103 125 -76 56 23
62 43 62 205 0 143 -1 148 -25 177 -30 36 -75 45 -118 23z"/>
</g>
</svg>
